<svg width="1686" height="2063" viewBox="0 0 1686 2063" fill="none" xmlns="http://www.w3.org/2000/svg">
<path d="M55 1905C-307.642 2073.48 -523.167 1893.5 -537 1769.5C-537 1555.33 -313.3 1089.2 -300.5 1054C-287.7 1018.8 -114 595.667 -49 519L1901 1003.5L2074.72 2059.07C1951.5 2094 1683.5 1810.5 1416.22 1964.57C1180.71 2100.34 714.344 2028.33 628.5 1999.5C524.5 1964.57 231.5 1823 55 1905Z" fill="#9ABD50"/>
<path d="M-314 243.89C-260.333 153.723 -105.8 -2.70993 83 92.8901C319 212.39 430 300.89 615.5 218.89C801 136.89 955.5 -11.6099 1135 152.39C1314.5 316.39 1466 328.39 1519.5 331.89C1562.3 334.69 1829 236.723 1957 187.39V835.913C2032.96 705.382 2090.01 879.012 2165 939.89C2233 995.09 1936 991.39 1957 987.39V835.913C1946.87 853.328 1936.4 876.157 1925.5 905.39C1875 1040.89 1604.5 1141.39 1387 1075.39C1259.73 1036.77 1149.54 852.865 741.5 1009.39C552.5 1081.89 -270 1229.89 -270 867.39L-314 243.89Z" fill="#FF5281"/>
<path d="M-314 181C-260.333 90.8333 -105.8 -65.6001 83 29.9999C319 149.5 430 238 615.5 156C801 74 955.5 -74.5 1135 89.5C1314.5 253.5 1466 265.5 1519.5 269C1562.3 271.8 1829 173.833 1957 124.5V773.023C2032.96 642.491 2090.01 816.122 2165 877C2233 932.2 1936 928.5 1957 924.5V773.023C1946.87 790.438 1936.4 813.267 1925.5 842.5C1875 978 1604.5 1078.5 1387 1012.5C1259.73 973.879 1149.54 789.975 741.5 946.5C552.5 1019 -270 1167 -270 804.5L-314 181Z" fill="#F1828C"/>
</svg>
