<svg width="1686" height="1706" viewBox="0 0 1686 1706" fill="none" xmlns="http://www.w3.org/2000/svg">
<path d="M83.5 46.4998C-67.3 39.6998 -99 84.6665 -96 108V355H1877.5L1857 7.99981C1828.5 20.8331 1755 46.4998 1689 46.4998C1606.5 46.4998 1583.5 108 1501 108C1418.5 108 1336.5 108 1283.5 46.4998C1230.5 -15.0002 1051 46.4998 892.5 78.4998C765.7 104.1 612 54.1665 551 25.9998C439.5 -45 234.3 53.2998 83.5 46.4998Z" fill="#E0E7F3"/>
<path d="M75 164L-68 130.006L-200.5 318.006L2005 350.507V150.506C1951.17 163.34 1904 130.006 1715.5 130.006C1559.22 130.006 1568.5 178.5 1440.5 223C1345 256.201 1343 198.006 1157 130.006C968.5 45.0064 875 149.5 733.5 178.5C620.3 201.7 471.667 136.673 413 83.0064C354.333 29.3397 190.2 133.2 75 164Z" fill="#CED9EC"/>
<path d="M330.5 264.573C63 -17.9267 -385.833 159.334 -531 246.5L-403.5 514.5L1907.5 491.073L1825.5 264.573C1649 318.407 1325 396.5 1269.5 264.573C1218.73 143.89 923.5 183.074 824.5 223.074C664.833 279.907 389.3 367.773 330.5 264.573Z" fill="#B1C3E1"/>
<path d="M-13.5 223C-178.3 110.2 -290.167 381.5 -316.5 505L-254.5 575.827L457 614.327C988.333 617.16 2048 621.126 2036 614.327C2021 605.827 1965.5 487.826 1957 408.326C1948.5 328.826 1642 299.326 1445 428.826C1248 558.326 918.5 405.326 657 331.826C395.5 258.326 166 505 -13.5 223Z" fill="#85A1D0"/>
<path d="M-407 485.516C-389.5 371.849 -101.7 202.716 251.5 435.516C604.7 668.316 838 565.849 910.5 485.516C971.167 418.682 1157.8 320.316 1419 461.516C1680.2 602.716 1957.17 567.682 2063 532.516L2178 794.016V1561.52L1871.5 1547.89C1897.5 1683.41 1711.67 1709.1 1615.5 1705C1550 1698.17 1400.1 1657.4 1324.5 1549C1248.9 1440.6 1105 1456.83 1042.5 1478.5C961 1514.83 768 1584.5 648 1572.5C505.355 1558.24 440.031 1453.99 327.758 1474.33L310 1478.5C116 1514 86.5 1537.5 36.5 1478.5C-3.5 1431.3 -3.5 1368.5 1.5 1343L-407 485.516Z" fill="#406CB5"/>
</svg>
